# vtk DataFile Version 2.0
geometrically linear steady-state plane stress analysis
ASCII

DATASET UNSTRUCTURED_GRID
POINTS 173 double
  NaN  NaN  0.000000
  NaN  NaN  0.000000
  NaN  NaN  0.000000
  NaN  NaN  0.000000
  NaN  NaN  0.000000
  NaN  NaN  0.000000
  NaN  NaN  0.000000
  NaN  NaN  0.000000
  NaN  NaN  0.000000
  NaN  NaN  0.000000
  NaN  NaN  0.000000
  NaN  NaN  0.000000
  NaN  NaN  0.000000
  NaN  NaN  0.000000
  NaN  NaN  0.000000
  NaN  NaN  0.000000
  NaN  NaN  0.000000
  NaN  NaN  0.000000
  NaN  NaN  0.000000
  NaN  NaN  0.000000
  NaN  NaN  0.000000
  NaN  NaN  0.000000
  NaN  NaN  0.000000
  NaN  NaN  0.000000
  NaN  NaN  0.000000
  NaN  NaN  0.000000
  NaN  NaN  0.000000
  NaN  NaN  0.000000
  NaN  NaN  0.000000
  NaN  NaN  0.000000
  NaN  NaN  0.000000
  NaN  NaN  0.000000
  NaN  NaN  0.000000
  NaN  NaN  0.000000
  NaN  NaN  0.000000
  NaN  NaN  0.000000
  NaN  NaN  0.000000
  NaN  NaN  0.000000
  NaN  NaN  0.000000
  NaN  NaN  0.000000
  NaN  NaN  0.000000
  NaN  NaN  0.000000
  NaN  NaN  0.000000
  NaN  NaN  0.000000
  NaN  NaN  0.000000
  NaN  NaN  0.000000
  NaN  NaN  0.000000
  NaN  NaN  0.000000
  NaN  NaN  0.000000
  NaN  NaN  0.000000
  NaN  NaN  0.000000
  NaN  NaN  0.000000
  NaN  NaN  0.000000
  NaN  NaN  0.000000
  NaN  NaN  0.000000
  NaN  NaN  0.000000
  NaN  NaN  0.000000
  NaN  NaN  0.000000
  NaN  NaN  0.000000
  NaN  NaN  0.000000
  NaN  NaN  0.000000
  NaN  NaN  0.000000
  NaN  NaN  0.000000
  NaN  NaN  0.000000
  NaN  NaN  0.000000
  NaN  NaN  0.000000
  NaN  NaN  0.000000
  NaN  NaN  0.000000
  NaN  NaN  0.000000
  NaN  NaN  0.000000
  NaN  NaN  0.000000
  NaN  NaN  0.000000
  NaN  NaN  0.000000
  NaN  NaN  0.000000
  NaN  NaN  0.000000
  NaN  NaN  0.000000
  NaN  NaN  0.000000
  NaN  NaN  0.000000
  NaN  NaN  0.000000
  NaN  NaN  0.000000
  NaN  NaN  0.000000
  NaN  NaN  0.000000
  NaN  NaN  0.000000
  NaN  NaN  0.000000
  NaN  NaN  0.000000
  NaN  NaN  0.000000
  NaN  NaN  0.000000
  NaN  NaN  0.000000
  NaN  NaN  0.000000
  NaN  NaN  0.000000
  NaN  NaN  0.000000
  NaN  NaN  0.000000
  NaN  NaN  0.000000
  NaN  NaN  0.000000
  NaN  NaN  0.000000
  NaN  NaN  0.000000
  NaN  NaN  0.000000
  NaN  NaN  0.000000
  NaN  NaN  0.000000
  NaN  NaN  0.000000
  NaN  NaN  0.000000
  NaN  NaN  0.000000
  NaN  NaN  0.000000
  NaN  NaN  0.000000
  NaN  NaN  0.000000
  NaN  NaN  0.000000
  NaN  NaN  0.000000
  NaN  NaN  0.000000
  NaN  NaN  0.000000
  NaN  NaN  0.000000
  NaN  NaN  0.000000
  NaN  NaN  0.000000
  NaN  NaN  0.000000
  NaN  NaN  0.000000
  NaN  NaN  0.000000
  NaN  NaN  0.000000
  NaN  NaN  0.000000
  NaN  NaN  0.000000
  NaN  NaN  0.000000
  NaN  NaN  0.000000
  NaN  NaN  0.000000
  NaN  NaN  0.000000
  NaN  NaN  0.000000
  NaN  NaN  0.000000
  NaN  NaN  0.000000
  NaN  NaN  0.000000
  NaN  NaN  0.000000
  NaN  NaN  0.000000
  NaN  NaN  0.000000
  NaN  NaN  0.000000
  NaN  NaN  0.000000
  NaN  NaN  0.000000
  NaN  NaN  0.000000
  NaN  NaN  0.000000
  NaN  NaN  0.000000
  NaN  NaN  0.000000
  NaN  NaN  0.000000
  NaN  NaN  0.000000
  NaN  NaN  0.000000
  NaN  NaN  0.000000
  NaN  NaN  0.000000
  NaN  NaN  0.000000
  NaN  NaN  0.000000
  NaN  NaN  0.000000
  NaN  NaN  0.000000
  NaN  NaN  0.000000
  NaN  NaN  0.000000
  NaN  NaN  0.000000
  NaN  NaN  0.000000
  NaN  NaN  0.000000
  0.000000  0.500000  0.000000
  0.000000  0.490000  0.000000
  NaN  NaN  0.000000
  NaN  NaN  0.000000
  NaN  NaN  0.000000
  NaN  NaN  0.000000
  NaN  NaN  0.000000
  NaN  NaN  0.000000
  NaN  NaN  0.000000
  NaN  NaN  0.000000
  NaN  NaN  0.000000
  NaN  NaN  0.000000
  NaN  NaN  0.000000
  NaN  NaN  0.000000
  NaN  NaN  0.000000
  NaN  NaN  0.000000
  NaN  NaN  0.000000
  NaN  NaN  0.000000
  NaN  NaN  0.000000
  NaN  NaN  0.000000
  NaN  NaN  0.000000
  0.000000  0.010000  0.000000
  0.000000  0.000000  0.000000

CELLS  265  1060
  3  150  151  147
  3  171  172  168
  3  168  164  166
  3  170  171  166
  3  164  159  161
  3  171  168  166
  3  166  164  161
  3  166  161  163
  3  159  154  156
  3  140  147  144
  3  147  151  144
  3  161  159  156
  3  161  156  163
  3  135  140  137
  3  151  152  144
  3  154  145  148
  3  140  144  137
  3  137  144  141
  3  156  154  148
  3  156  148  149
  3  128  135  132
  3  169  170  163
  3  145  138  139
  3  170  166  163
  3  135  137  132
  3  132  137  141
  3  123  128  126
  3  148  145  139
  3  148  139  149
  3  138  131  133
  3  128  132  126
  3  126  132  129
  3  139  138  133
  3  139  133  134
  3  117  123  120
  3  144  152  141
  3  169  163  160
  3  131  124  125
  3  123  126  120
  3  120  126  129
  3  156  149  163
  3  111  117  115
  3  152  153  141
  3  133  131  125
  3  133  125  134
  3  160  163  149
  3  169  160  167
  3  167  160  165
  3  124  118  119
  3  117  120  115
  3  115  120  116
  3  107  111  109
  3  125  124  119
  3  125  119  122
  3  111  115  109
  3  109  115  116
  3  141  153  143
  3  118  112  114
  3  129  132  141
  3  139  134  149
  3  119  118  114
  3  119  114  122
  3  101  107  104
  3  112  106  108
  3  107  109  104
  3  104  109  105
  3  114  112  108
  3  114  108  110
  3  97  101  99
  3  143  153  155
  3  143  155  157
  3  141  143  129
  3  106  100  102
  3  101  104  99
  3  99  104  105
  3  160  149  146
  3  116  120  129
  3  125  122  134
  3  149  134  146
  3  108  106  102
  3  108  102  110
  3  91  97  92
  3  160  146  165
  3  100  93  96
  3  97  99  92
  3  92  99  98
  3  102  100  96
  3  102  96  94
  3  85  91  87
  3  93  89  90
  3  129  143  130
  3  91  92  87
  3  87  92  98
  3  105  109  116
  3  116  129  130
  3  146  134  127
  3  80  85  82
  3  134  122  127
  3  96  93  90
  3  96  90  94
  3  89  81  83
  3  114  110  122
  3  85  87  82
  3  82  87  86
  3  75  80  77
  3  130  143  157
  3  90  89  83
  3  90  83  84
  3  116  130  113
  3  162  165  142
  3  127  122  110
  3  81  78  79
  3  80  82  77
  3  77  82  86
  3  146  127  142
  3  142  127  121
  3  146  142  165
  3  98  99  105
  3  105  116  113
  3  105  113  98
  3  70  75  72
  3  83  81  79
  3  83  79  84
  3  102  94  110
  3  78  71  73
  3  75  77  72
  3  72  77  76
  3  66  70  68
  3  162  142  136
  3  79  78  73
  3  79  73  74
  3  71  67  69
  3  113  130  136
  3  70  72  68
  3  68  72  76
  3  60  66  62
  3  157  158  136
  3  136  158  162
  3  86  87  98
  3  73  71  69
  3  73  69  74
  3  66  68  62
  3  62  68  65
  3  67  61  63
  3  90  84  94
  3  110  94  103
  3  55  60  59
  3  136  142  121
  3  136  121  113
  3  69  67  63
  3  69  63  64
  3  60  62  59
  3  59  62  65
  3  61  57  58
  3  121  127  103
  3  51  55  54
  3  130  157  136
  3  76  77  86
  3  63  61  58
  3  63  58  64
  3  57  52  53
  3  86  98  95
  3  55  59  54
  3  54  59  56
  3  46  51  49
  3  79  74  84
  3  103  94  88
  3  110  103  127
  3  17  11  18
  3  8  4  6
  3  1  0  2
  3  11  8  12
  3  4  1  3
  3  94  84  88
  3  88  84  74
  3  58  57  53
  3  58  50  56
  3  121  103  113
  3  52  47  48
  3  14  19  16
  3  36  41  38
  3  5  9  7
  3  26  30  28
  3  2  5  3
  3  19  26  22
  3  41  46  44
  3  9  14  10
  3  30  36  33
  3  51  54  49
  3  49  54  56
  3  47  43  42
  3  31  27  25
  3  40  35  34
  3  24  21  15
  3  43  40  37
  3  35  31  29
  3  27  24  20
  3  21  18  12
  3  98  113  95
  3  53  52  48
  3  53  48  50
  3  65  68  76
  3  46  49  44
  3  44  49  50
  3  76  86  88
  3  6  4  3
  3  6  3  7
  3  12  8  6
  3  12  6  15
  3  3  1  2
  3  11  12  18
  3  86  95  88
  3  88  95  103
  3  103  95  113
  3  69  64  74
  3  48  47  42
  3  48  42  45
  3  16  19  22
  3  16  22  23
  3  7  9  10
  3  7  10  13
  3  22  26  28
  3  22  28  23
  3  10  14  16
  3  10  16  13
  3  38  41  44
  3  38  44  45
  3  28  30  33
  3  28  33  32
  3  33  36  38
  3  33  38  32
  3  5  7  3
  3  42  43  37
  3  42  37  39
  3  34  35  29
  3  34  29  32
  3  37  40  34
  3  37  34  32
  3  20  24  15
  3  20  15  13
  3  25  27  20
  3  25  20  23
  3  15  21  12
  3  29  31  25
  3  29  25  23
  3  56  59  65
  3  65  76  74
  3  50  48  45
  3  50  45  44
  3  53  50  58
  3  16  23  13
  3  7  13  6
  3  28  32  23
  3  45  42  39
  3  45  39  38
  3  39  37  32
  3  39  32  38
  3  74  64  65
  3  65  64  56
  3  56  64  58
  3  13  15  6
  3  50  49  56
  3  20  13  23
  3  29  23  32
  3  88  74  76

CELL_TYPES 265
5
5
5
5
5
5
5
5
5
5
5
5
5
5
5
5
5
5
5
5
5
5
5
5
5
5
5
5
5
5
5
5
5
5
5
5
5
5
5
5
5
5
5
5
5
5
5
5
5
5
5
5
5
5
5
5
5
5
5
5
5
5
5
5
5
5
5
5
5
5
5
5
5
5
5
5
5
5
5
5
5
5
5
5
5
5
5
5
5
5
5
5
5
5
5
5
5
5
5
5
5
5
5
5
5
5
5
5
5
5
5
5
5
5
5
5
5
5
5
5
5
5
5
5
5
5
5
5
5
5
5
5
5
5
5
5
5
5
5
5
5
5
5
5
5
5
5
5
5
5
5
5
5
5
5
5
5
5
5
5
5
5
5
5
5
5
5
5
5
5
5
5
5
5
5
5
5
5
5
5
5
5
5
5
5
5
5
5
5
5
5
5
5
5
5
5
5
5
5
5
5
5
5
5
5
5
5
5
5
5
5
5
5
5
5
5
5
5
5
5
5
5
5
5
5
5
5
5
5
5
5
5
5
5
5
5
5
5
5
5
5
5
5
5
5
5
5
5
5
5
5
5
5
5
5
5
5
5
5
5
5
5
5
5
5

CELL_DATA 265
TENSORS strain double
  NaN  NaN  0.000000
  NaN  NaN  0.000000
  0.000000  0.000000  0.000000

  NaN  NaN  0.000000
  NaN  NaN  0.000000
  0.000000  0.000000  0.000000

  NaN  NaN  0.000000
  NaN  NaN  0.000000
  0.000000  0.000000  0.000000

  NaN  NaN  0.000000
  NaN  NaN  0.000000
  0.000000  0.000000  0.000000

  NaN  NaN  0.000000
  NaN  NaN  0.000000
  0.000000  0.000000  0.000000

  NaN  NaN  0.000000
  NaN  NaN  0.000000
  0.000000  0.000000  0.000000

  NaN  NaN  0.000000
  NaN  NaN  0.000000
  0.000000  0.000000  0.000000

  NaN  NaN  0.000000
  NaN  NaN  0.000000
  0.000000  0.000000  0.000000

  NaN  NaN  0.000000
  NaN  NaN  0.000000
  0.000000  0.000000  0.000000

  NaN  NaN  0.000000
  NaN  NaN  0.000000
  0.000000  0.000000  0.000000

  NaN  NaN  0.000000
  NaN  NaN  0.000000
  0.000000  0.000000  0.000000

  NaN  NaN  0.000000
  NaN  NaN  0.000000
  0.000000  0.000000  0.000000

  NaN  NaN  0.000000
  NaN  NaN  0.000000
  0.000000  0.000000  0.000000

  NaN  NaN  0.000000
  NaN  NaN  0.000000
  0.000000  0.000000  0.000000

  NaN  NaN  0.000000
  NaN  NaN  0.000000
  0.000000  0.000000  0.000000

  NaN  NaN  0.000000
  NaN  NaN  0.000000
  0.000000  0.000000  0.000000

  NaN  NaN  0.000000
  NaN  NaN  0.000000
  0.000000  0.000000  0.000000

  NaN  NaN  0.000000
  NaN  NaN  0.000000
  0.000000  0.000000  0.000000

  NaN  NaN  0.000000
  NaN  NaN  0.000000
  0.000000  0.000000  0.000000

  NaN  NaN  0.000000
  NaN  NaN  0.000000
  0.000000  0.000000  0.000000

  NaN  NaN  0.000000
  NaN  NaN  0.000000
  0.000000  0.000000  0.000000

  NaN  NaN  0.000000
  NaN  NaN  0.000000
  0.000000  0.000000  0.000000

  NaN  NaN  0.000000
  NaN  NaN  0.000000
  0.000000  0.000000  0.000000

  NaN  NaN  0.000000
  NaN  NaN  0.000000
  0.000000  0.000000  0.000000

  NaN  NaN  0.000000
  NaN  NaN  0.000000
  0.000000  0.000000  0.000000

  NaN  NaN  0.000000
  NaN  NaN  0.000000
  0.000000  0.000000  0.000000

  NaN  NaN  0.000000
  NaN  NaN  0.000000
  0.000000  0.000000  0.000000

  NaN  NaN  0.000000
  NaN  NaN  0.000000
  0.000000  0.000000  0.000000

  NaN  NaN  0.000000
  NaN  NaN  0.000000
  0.000000  0.000000  0.000000

  NaN  NaN  0.000000
  NaN  NaN  0.000000
  0.000000  0.000000  0.000000

  NaN  NaN  0.000000
  NaN  NaN  0.000000
  0.000000  0.000000  0.000000

  NaN  NaN  0.000000
  NaN  NaN  0.000000
  0.000000  0.000000  0.000000

  NaN  NaN  0.000000
  NaN  NaN  0.000000
  0.000000  0.000000  0.000000

  NaN  NaN  0.000000
  NaN  NaN  0.000000
  0.000000  0.000000  0.000000

  NaN  NaN  0.000000
  NaN  NaN  0.000000
  0.000000  0.000000  0.000000

  NaN  NaN  0.000000
  NaN  NaN  0.000000
  0.000000  0.000000  0.000000

  NaN  NaN  0.000000
  NaN  NaN  0.000000
  0.000000  0.000000  0.000000

  NaN  NaN  0.000000
  NaN  NaN  0.000000
  0.000000  0.000000  0.000000

  NaN  NaN  0.000000
  NaN  NaN  0.000000
  0.000000  0.000000  0.000000

  NaN  NaN  0.000000
  NaN  NaN  0.000000
  0.000000  0.000000  0.000000

  NaN  NaN  0.000000
  NaN  NaN  0.000000
  0.000000  0.000000  0.000000

  NaN  NaN  0.000000
  NaN  NaN  0.000000
  0.000000  0.000000  0.000000

  NaN  NaN  0.000000
  NaN  NaN  0.000000
  0.000000  0.000000  0.000000

  NaN  NaN  0.000000
  NaN  NaN  0.000000
  0.000000  0.000000  0.000000

  NaN  NaN  0.000000
  NaN  NaN  0.000000
  0.000000  0.000000  0.000000

  NaN  NaN  0.000000
  NaN  NaN  0.000000
  0.000000  0.000000  0.000000

  NaN  NaN  0.000000
  NaN  NaN  0.000000
  0.000000  0.000000  0.000000

  NaN  NaN  0.000000
  NaN  NaN  0.000000
  0.000000  0.000000  0.000000

  NaN  NaN  0.000000
  NaN  NaN  0.000000
  0.000000  0.000000  0.000000

  NaN  NaN  0.000000
  NaN  NaN  0.000000
  0.000000  0.000000  0.000000

  NaN  NaN  0.000000
  NaN  NaN  0.000000
  0.000000  0.000000  0.000000

  NaN  NaN  0.000000
  NaN  NaN  0.000000
  0.000000  0.000000  0.000000

  NaN  NaN  0.000000
  NaN  NaN  0.000000
  0.000000  0.000000  0.000000

  NaN  NaN  0.000000
  NaN  NaN  0.000000
  0.000000  0.000000  0.000000

  NaN  NaN  0.000000
  NaN  NaN  0.000000
  0.000000  0.000000  0.000000

  NaN  NaN  0.000000
  NaN  NaN  0.000000
  0.000000  0.000000  0.000000

  NaN  NaN  0.000000
  NaN  NaN  0.000000
  0.000000  0.000000  0.000000

  NaN  NaN  0.000000
  NaN  NaN  0.000000
  0.000000  0.000000  0.000000

  NaN  NaN  0.000000
  NaN  NaN  0.000000
  0.000000  0.000000  0.000000

  NaN  NaN  0.000000
  NaN  NaN  0.000000
  0.000000  0.000000  0.000000

  NaN  NaN  0.000000
  NaN  NaN  0.000000
  0.000000  0.000000  0.000000

  NaN  NaN  0.000000
  NaN  NaN  0.000000
  0.000000  0.000000  0.000000

  NaN  NaN  0.000000
  NaN  NaN  0.000000
  0.000000  0.000000  0.000000

  NaN  NaN  0.000000
  NaN  NaN  0.000000
  0.000000  0.000000  0.000000

  NaN  NaN  0.000000
  NaN  NaN  0.000000
  0.000000  0.000000  0.000000

  NaN  NaN  0.000000
  NaN  NaN  0.000000
  0.000000  0.000000  0.000000

  NaN  NaN  0.000000
  NaN  NaN  0.000000
  0.000000  0.000000  0.000000

  NaN  NaN  0.000000
  NaN  NaN  0.000000
  0.000000  0.000000  0.000000

  NaN  NaN  0.000000
  NaN  NaN  0.000000
  0.000000  0.000000  0.000000

  NaN  NaN  0.000000
  NaN  NaN  0.000000
  0.000000  0.000000  0.000000

  NaN  NaN  0.000000
  NaN  NaN  0.000000
  0.000000  0.000000  0.000000

  NaN  NaN  0.000000
  NaN  NaN  0.000000
  0.000000  0.000000  0.000000

  NaN  NaN  0.000000
  NaN  NaN  0.000000
  0.000000  0.000000  0.000000

  NaN  NaN  0.000000
  NaN  NaN  0.000000
  0.000000  0.000000  0.000000

  NaN  NaN  0.000000
  NaN  NaN  0.000000
  0.000000  0.000000  0.000000

  NaN  NaN  0.000000
  NaN  NaN  0.000000
  0.000000  0.000000  0.000000

  NaN  NaN  0.000000
  NaN  NaN  0.000000
  0.000000  0.000000  0.000000

  NaN  NaN  0.000000
  NaN  NaN  0.000000
  0.000000  0.000000  0.000000

  NaN  NaN  0.000000
  NaN  NaN  0.000000
  0.000000  0.000000  0.000000

  NaN  NaN  0.000000
  NaN  NaN  0.000000
  0.000000  0.000000  0.000000

  NaN  NaN  0.000000
  NaN  NaN  0.000000
  0.000000  0.000000  0.000000

  NaN  NaN  0.000000
  NaN  NaN  0.000000
  0.000000  0.000000  0.000000

  NaN  NaN  0.000000
  NaN  NaN  0.000000
  0.000000  0.000000  0.000000

  NaN  NaN  0.000000
  NaN  NaN  0.000000
  0.000000  0.000000  0.000000

  NaN  NaN  0.000000
  NaN  NaN  0.000000
  0.000000  0.000000  0.000000

  NaN  NaN  0.000000
  NaN  NaN  0.000000
  0.000000  0.000000  0.000000

  NaN  NaN  0.000000
  NaN  NaN  0.000000
  0.000000  0.000000  0.000000

  NaN  NaN  0.000000
  NaN  NaN  0.000000
  0.000000  0.000000  0.000000

  NaN  NaN  0.000000
  NaN  NaN  0.000000
  0.000000  0.000000  0.000000

  NaN  NaN  0.000000
  NaN  NaN  0.000000
  0.000000  0.000000  0.000000

  NaN  NaN  0.000000
  NaN  NaN  0.000000
  0.000000  0.000000  0.000000

  NaN  NaN  0.000000
  NaN  NaN  0.000000
  0.000000  0.000000  0.000000

  NaN  NaN  0.000000
  NaN  NaN  0.000000
  0.000000  0.000000  0.000000

  NaN  NaN  0.000000
  NaN  NaN  0.000000
  0.000000  0.000000  0.000000

  NaN  NaN  0.000000
  NaN  NaN  0.000000
  0.000000  0.000000  0.000000

  NaN  NaN  0.000000
  NaN  NaN  0.000000
  0.000000  0.000000  0.000000

  NaN  NaN  0.000000
  NaN  NaN  0.000000
  0.000000  0.000000  0.000000

  NaN  NaN  0.000000
  NaN  NaN  0.000000
  0.000000  0.000000  0.000000

  NaN  NaN  0.000000
  NaN  NaN  0.000000
  0.000000  0.000000  0.000000

  NaN  NaN  0.000000
  NaN  NaN  0.000000
  0.000000  0.000000  0.000000

  NaN  NaN  0.000000
  NaN  NaN  0.000000
  0.000000  0.000000  0.000000

  NaN  NaN  0.000000
  NaN  NaN  0.000000
  0.000000  0.000000  0.000000

  NaN  NaN  0.000000
  NaN  NaN  0.000000
  0.000000  0.000000  0.000000

  NaN  NaN  0.000000
  NaN  NaN  0.000000
  0.000000  0.000000  0.000000

  NaN  NaN  0.000000
  NaN  NaN  0.000000
  0.000000  0.000000  0.000000

  NaN  NaN  0.000000
  NaN  NaN  0.000000
  0.000000  0.000000  0.000000

  NaN  NaN  0.000000
  NaN  NaN  0.000000
  0.000000  0.000000  0.000000

  NaN  NaN  0.000000
  NaN  NaN  0.000000
  0.000000  0.000000  0.000000

  NaN  NaN  0.000000
  NaN  NaN  0.000000
  0.000000  0.000000  0.000000

  NaN  NaN  0.000000
  NaN  NaN  0.000000
  0.000000  0.000000  0.000000

  NaN  NaN  0.000000
  NaN  NaN  0.000000
  0.000000  0.000000  0.000000

  NaN  NaN  0.000000
  NaN  NaN  0.000000
  0.000000  0.000000  0.000000

  NaN  NaN  0.000000
  NaN  NaN  0.000000
  0.000000  0.000000  0.000000

  NaN  NaN  0.000000
  NaN  NaN  0.000000
  0.000000  0.000000  0.000000

  NaN  NaN  0.000000
  NaN  NaN  0.000000
  0.000000  0.000000  0.000000

  NaN  NaN  0.000000
  NaN  NaN  0.000000
  0.000000  0.000000  0.000000

  NaN  NaN  0.000000
  NaN  NaN  0.000000
  0.000000  0.000000  0.000000

  NaN  NaN  0.000000
  NaN  NaN  0.000000
  0.000000  0.000000  0.000000

  NaN  NaN  0.000000
  NaN  NaN  0.000000
  0.000000  0.000000  0.000000

  NaN  NaN  0.000000
  NaN  NaN  0.000000
  0.000000  0.000000  0.000000

  NaN  NaN  0.000000
  NaN  NaN  0.000000
  0.000000  0.000000  0.000000

  NaN  NaN  0.000000
  NaN  NaN  0.000000
  0.000000  0.000000  0.000000

  NaN  NaN  0.000000
  NaN  NaN  0.000000
  0.000000  0.000000  0.000000

  NaN  NaN  0.000000
  NaN  NaN  0.000000
  0.000000  0.000000  0.000000

  NaN  NaN  0.000000
  NaN  NaN  0.000000
  0.000000  0.000000  0.000000

  NaN  NaN  0.000000
  NaN  NaN  0.000000
  0.000000  0.000000  0.000000

  NaN  NaN  0.000000
  NaN  NaN  0.000000
  0.000000  0.000000  0.000000

  NaN  NaN  0.000000
  NaN  NaN  0.000000
  0.000000  0.000000  0.000000

  NaN  NaN  0.000000
  NaN  NaN  0.000000
  0.000000  0.000000  0.000000

  NaN  NaN  0.000000
  NaN  NaN  0.000000
  0.000000  0.000000  0.000000

  NaN  NaN  0.000000
  NaN  NaN  0.000000
  0.000000  0.000000  0.000000

  NaN  NaN  0.000000
  NaN  NaN  0.000000
  0.000000  0.000000  0.000000

  NaN  NaN  0.000000
  NaN  NaN  0.000000
  0.000000  0.000000  0.000000

  NaN  NaN  0.000000
  NaN  NaN  0.000000
  0.000000  0.000000  0.000000

  NaN  NaN  0.000000
  NaN  NaN  0.000000
  0.000000  0.000000  0.000000

  NaN  NaN  0.000000
  NaN  NaN  0.000000
  0.000000  0.000000  0.000000

  NaN  NaN  0.000000
  NaN  NaN  0.000000
  0.000000  0.000000  0.000000

  NaN  NaN  0.000000
  NaN  NaN  0.000000
  0.000000  0.000000  0.000000

  NaN  NaN  0.000000
  NaN  NaN  0.000000
  0.000000  0.000000  0.000000

  NaN  NaN  0.000000
  NaN  NaN  0.000000
  0.000000  0.000000  0.000000

  NaN  NaN  0.000000
  NaN  NaN  0.000000
  0.000000  0.000000  0.000000

  NaN  NaN  0.000000
  NaN  NaN  0.000000
  0.000000  0.000000  0.000000

  NaN  NaN  0.000000
  NaN  NaN  0.000000
  0.000000  0.000000  0.000000

  NaN  NaN  0.000000
  NaN  NaN  0.000000
  0.000000  0.000000  0.000000

  NaN  NaN  0.000000
  NaN  NaN  0.000000
  0.000000  0.000000  0.000000

  NaN  NaN  0.000000
  NaN  NaN  0.000000
  0.000000  0.000000  0.000000

  NaN  NaN  0.000000
  NaN  NaN  0.000000
  0.000000  0.000000  0.000000

  NaN  NaN  0.000000
  NaN  NaN  0.000000
  0.000000  0.000000  0.000000

  NaN  NaN  0.000000
  NaN  NaN  0.000000
  0.000000  0.000000  0.000000

  NaN  NaN  0.000000
  NaN  NaN  0.000000
  0.000000  0.000000  0.000000

  NaN  NaN  0.000000
  NaN  NaN  0.000000
  0.000000  0.000000  0.000000

  NaN  NaN  0.000000
  NaN  NaN  0.000000
  0.000000  0.000000  0.000000

  NaN  NaN  0.000000
  NaN  NaN  0.000000
  0.000000  0.000000  0.000000

  NaN  NaN  0.000000
  NaN  NaN  0.000000
  0.000000  0.000000  0.000000

  NaN  NaN  0.000000
  NaN  NaN  0.000000
  0.000000  0.000000  0.000000

  NaN  NaN  0.000000
  NaN  NaN  0.000000
  0.000000  0.000000  0.000000

  NaN  NaN  0.000000
  NaN  NaN  0.000000
  0.000000  0.000000  0.000000

  NaN  NaN  0.000000
  NaN  NaN  0.000000
  0.000000  0.000000  0.000000

  NaN  NaN  0.000000
  NaN  NaN  0.000000
  0.000000  0.000000  0.000000

  NaN  NaN  0.000000
  NaN  NaN  0.000000
  0.000000  0.000000  0.000000

  NaN  NaN  0.000000
  NaN  NaN  0.000000
  0.000000  0.000000  0.000000

  NaN  NaN  0.000000
  NaN  NaN  0.000000
  0.000000  0.000000  0.000000

  NaN  NaN  0.000000
  NaN  NaN  0.000000
  0.000000  0.000000  0.000000

  NaN  NaN  0.000000
  NaN  NaN  0.000000
  0.000000  0.000000  0.000000

  NaN  NaN  0.000000
  NaN  NaN  0.000000
  0.000000  0.000000  0.000000

  NaN  NaN  0.000000
  NaN  NaN  0.000000
  0.000000  0.000000  0.000000

  NaN  NaN  0.000000
  NaN  NaN  0.000000
  0.000000  0.000000  0.000000

  NaN  NaN  0.000000
  NaN  NaN  0.000000
  0.000000  0.000000  0.000000

  NaN  NaN  0.000000
  NaN  NaN  0.000000
  0.000000  0.000000  0.000000

  NaN  NaN  0.000000
  NaN  NaN  0.000000
  0.000000  0.000000  0.000000

  NaN  NaN  0.000000
  NaN  NaN  0.000000
  0.000000  0.000000  0.000000

  NaN  NaN  0.000000
  NaN  NaN  0.000000
  0.000000  0.000000  0.000000

  NaN  NaN  0.000000
  NaN  NaN  0.000000
  0.000000  0.000000  0.000000

  NaN  NaN  0.000000
  NaN  NaN  0.000000
  0.000000  0.000000  0.000000

  NaN  NaN  0.000000
  NaN  NaN  0.000000
  0.000000  0.000000  0.000000

  NaN  NaN  0.000000
  NaN  NaN  0.000000
  0.000000  0.000000  0.000000

  NaN  NaN  0.000000
  NaN  NaN  0.000000
  0.000000  0.000000  0.000000

  NaN  NaN  0.000000
  NaN  NaN  0.000000
  0.000000  0.000000  0.000000

  NaN  NaN  0.000000
  NaN  NaN  0.000000
  0.000000  0.000000  0.000000

  NaN  NaN  0.000000
  NaN  NaN  0.000000
  0.000000  0.000000  0.000000

  NaN  NaN  0.000000
  NaN  NaN  0.000000
  0.000000  0.000000  0.000000

  NaN  NaN  0.000000
  NaN  NaN  0.000000
  0.000000  0.000000  0.000000

  NaN  NaN  0.000000
  NaN  NaN  0.000000
  0.000000  0.000000  0.000000

  NaN  NaN  0.000000
  NaN  NaN  0.000000
  0.000000  0.000000  0.000000

  NaN  NaN  0.000000
  NaN  NaN  0.000000
  0.000000  0.000000  0.000000

  NaN  NaN  0.000000
  NaN  NaN  0.000000
  0.000000  0.000000  0.000000

  NaN  NaN  0.000000
  NaN  NaN  0.000000
  0.000000  0.000000  0.000000

  NaN  NaN  0.000000
  NaN  NaN  0.000000
  0.000000  0.000000  0.000000

  NaN  NaN  0.000000
  NaN  NaN  0.000000
  0.000000  0.000000  0.000000

  NaN  NaN  0.000000
  NaN  NaN  0.000000
  0.000000  0.000000  0.000000

  NaN  NaN  0.000000
  NaN  NaN  0.000000
  0.000000  0.000000  0.000000

  NaN  NaN  0.000000
  NaN  NaN  0.000000
  0.000000  0.000000  0.000000

  NaN  NaN  0.000000
  NaN  NaN  0.000000
  0.000000  0.000000  0.000000

  NaN  NaN  0.000000
  NaN  NaN  0.000000
  0.000000  0.000000  0.000000

  NaN  NaN  0.000000
  NaN  NaN  0.000000
  0.000000  0.000000  0.000000

  NaN  NaN  0.000000
  NaN  NaN  0.000000
  0.000000  0.000000  0.000000

  NaN  NaN  0.000000
  NaN  NaN  0.000000
  0.000000  0.000000  0.000000

  NaN  NaN  0.000000
  NaN  NaN  0.000000
  0.000000  0.000000  0.000000

  NaN  NaN  0.000000
  NaN  NaN  0.000000
  0.000000  0.000000  0.000000

  NaN  NaN  0.000000
  NaN  NaN  0.000000
  0.000000  0.000000  0.000000

  NaN  NaN  0.000000
  NaN  NaN  0.000000
  0.000000  0.000000  0.000000

  NaN  NaN  0.000000
  NaN  NaN  0.000000
  0.000000  0.000000  0.000000

  NaN  NaN  0.000000
  NaN  NaN  0.000000
  0.000000  0.000000  0.000000

  NaN  NaN  0.000000
  NaN  NaN  0.000000
  0.000000  0.000000  0.000000

  NaN  NaN  0.000000
  NaN  NaN  0.000000
  0.000000  0.000000  0.000000

  NaN  NaN  0.000000
  NaN  NaN  0.000000
  0.000000  0.000000  0.000000

  NaN  NaN  0.000000
  NaN  NaN  0.000000
  0.000000  0.000000  0.000000

  NaN  NaN  0.000000
  NaN  NaN  0.000000
  0.000000  0.000000  0.000000

  NaN  NaN  0.000000
  NaN  NaN  0.000000
  0.000000  0.000000  0.000000

  NaN  NaN  0.000000
  NaN  NaN  0.000000
  0.000000  0.000000  0.000000

  NaN  NaN  0.000000
  NaN  NaN  0.000000
  0.000000  0.000000  0.000000

  NaN  NaN  0.000000
  NaN  NaN  0.000000
  0.000000  0.000000  0.000000

  NaN  NaN  0.000000
  NaN  NaN  0.000000
  0.000000  0.000000  0.000000

  NaN  NaN  0.000000
  NaN  NaN  0.000000
  0.000000  0.000000  0.000000

  NaN  NaN  0.000000
  NaN  NaN  0.000000
  0.000000  0.000000  0.000000

  NaN  NaN  0.000000
  NaN  NaN  0.000000
  0.000000  0.000000  0.000000

  NaN  NaN  0.000000
  NaN  NaN  0.000000
  0.000000  0.000000  0.000000

  NaN  NaN  0.000000
  NaN  NaN  0.000000
  0.000000  0.000000  0.000000

  NaN  NaN  0.000000
  NaN  NaN  0.000000
  0.000000  0.000000  0.000000

  NaN  NaN  0.000000
  NaN  NaN  0.000000
  0.000000  0.000000  0.000000

  NaN  NaN  0.000000
  NaN  NaN  0.000000
  0.000000  0.000000  0.000000

  NaN  NaN  0.000000
  NaN  NaN  0.000000
  0.000000  0.000000  0.000000

  NaN  NaN  0.000000
  NaN  NaN  0.000000
  0.000000  0.000000  0.000000

  NaN  NaN  0.000000
  NaN  NaN  0.000000
  0.000000  0.000000  0.000000

  NaN  NaN  0.000000
  NaN  NaN  0.000000
  0.000000  0.000000  0.000000

  NaN  NaN  0.000000
  NaN  NaN  0.000000
  0.000000  0.000000  0.000000

  NaN  NaN  0.000000
  NaN  NaN  0.000000
  0.000000  0.000000  0.000000

  NaN  NaN  0.000000
  NaN  NaN  0.000000
  0.000000  0.000000  0.000000

  NaN  NaN  0.000000
  NaN  NaN  0.000000
  0.000000  0.000000  0.000000

  NaN  NaN  0.000000
  NaN  NaN  0.000000
  0.000000  0.000000  0.000000

  NaN  NaN  0.000000
  NaN  NaN  0.000000
  0.000000  0.000000  0.000000

  NaN  NaN  0.000000
  NaN  NaN  0.000000
  0.000000  0.000000  0.000000

  NaN  NaN  0.000000
  NaN  NaN  0.000000
  0.000000  0.000000  0.000000

  NaN  NaN  0.000000
  NaN  NaN  0.000000
  0.000000  0.000000  0.000000

  NaN  NaN  0.000000
  NaN  NaN  0.000000
  0.000000  0.000000  0.000000

  NaN  NaN  0.000000
  NaN  NaN  0.000000
  0.000000  0.000000  0.000000

  NaN  NaN  0.000000
  NaN  NaN  0.000000
  0.000000  0.000000  0.000000

  NaN  NaN  0.000000
  NaN  NaN  0.000000
  0.000000  0.000000  0.000000

  NaN  NaN  0.000000
  NaN  NaN  0.000000
  0.000000  0.000000  0.000000

  NaN  NaN  0.000000
  NaN  NaN  0.000000
  0.000000  0.000000  0.000000

  NaN  NaN  0.000000
  NaN  NaN  0.000000
  0.000000  0.000000  0.000000

  NaN  NaN  0.000000
  NaN  NaN  0.000000
  0.000000  0.000000  0.000000

  NaN  NaN  0.000000
  NaN  NaN  0.000000
  0.000000  0.000000  0.000000

  NaN  NaN  0.000000
  NaN  NaN  0.000000
  0.000000  0.000000  0.000000

  NaN  NaN  0.000000
  NaN  NaN  0.000000
  0.000000  0.000000  0.000000

  NaN  NaN  0.000000
  NaN  NaN  0.000000
  0.000000  0.000000  0.000000

  NaN  NaN  0.000000
  NaN  NaN  0.000000
  0.000000  0.000000  0.000000

  NaN  NaN  0.000000
  NaN  NaN  0.000000
  0.000000  0.000000  0.000000

  NaN  NaN  0.000000
  NaN  NaN  0.000000
  0.000000  0.000000  0.000000

  NaN  NaN  0.000000
  NaN  NaN  0.000000
  0.000000  0.000000  0.000000

  NaN  NaN  0.000000
  NaN  NaN  0.000000
  0.000000  0.000000  0.000000

  NaN  NaN  0.000000
  NaN  NaN  0.000000
  0.000000  0.000000  0.000000

  NaN  NaN  0.000000
  NaN  NaN  0.000000
  0.000000  0.000000  0.000000

  NaN  NaN  0.000000
  NaN  NaN  0.000000
  0.000000  0.000000  0.000000

  NaN  NaN  0.000000
  NaN  NaN  0.000000
  0.000000  0.000000  0.000000

  NaN  NaN  0.000000
  NaN  NaN  0.000000
  0.000000  0.000000  0.000000

  NaN  NaN  0.000000
  NaN  NaN  0.000000
  0.000000  0.000000  0.000000

  NaN  NaN  0.000000
  NaN  NaN  0.000000
  0.000000  0.000000  0.000000

  NaN  NaN  0.000000
  NaN  NaN  0.000000
  0.000000  0.000000  0.000000

  NaN  NaN  0.000000
  NaN  NaN  0.000000
  0.000000  0.000000  0.000000

  NaN  NaN  0.000000
  NaN  NaN  0.000000
  0.000000  0.000000  0.000000

  NaN  NaN  0.000000
  NaN  NaN  0.000000
  0.000000  0.000000  0.000000

  NaN  NaN  0.000000
  NaN  NaN  0.000000
  0.000000  0.000000  0.000000

  NaN  NaN  0.000000
  NaN  NaN  0.000000
  0.000000  0.000000  0.000000

  NaN  NaN  0.000000
  NaN  NaN  0.000000
  0.000000  0.000000  0.000000
POINT_DATA 173
VECTORS displacements double
  NaN  NaN  0.000000
  NaN  NaN  0.000000
  NaN  NaN  0.000000
  NaN  NaN  0.000000
  NaN  NaN  0.000000
  NaN  NaN  0.000000
  NaN  NaN  0.000000
  NaN  NaN  0.000000
  NaN  NaN  0.000000
  NaN  NaN  0.000000
  NaN  NaN  0.000000
  NaN  NaN  0.000000
  NaN  NaN  0.000000
  NaN  NaN  0.000000
  NaN  NaN  0.000000
  NaN  NaN  0.000000
  NaN  NaN  0.000000
  NaN  NaN  0.000000
  NaN  NaN  0.000000
  NaN  NaN  0.000000
  NaN  NaN  0.000000
  NaN  NaN  0.000000
  NaN  NaN  0.000000
  NaN  NaN  0.000000
  NaN  NaN  0.000000
  NaN  NaN  0.000000
  NaN  NaN  0.000000
  NaN  NaN  0.000000
  NaN  NaN  0.000000
  NaN  NaN  0.000000
  NaN  NaN  0.000000
  NaN  NaN  0.000000
  NaN  NaN  0.000000
  NaN  NaN  0.000000
  NaN  NaN  0.000000
  NaN  NaN  0.000000
  NaN  NaN  0.000000
  NaN  NaN  0.000000
  NaN  NaN  0.000000
  NaN  NaN  0.000000
  NaN  NaN  0.000000
  NaN  NaN  0.000000
  NaN  NaN  0.000000
  NaN  NaN  0.000000
  NaN  NaN  0.000000
  NaN  NaN  0.000000
  NaN  NaN  0.000000
  NaN  NaN  0.000000
  NaN  NaN  0.000000
  NaN  NaN  0.000000
  NaN  NaN  0.000000
  NaN  NaN  0.000000
  NaN  NaN  0.000000
  NaN  NaN  0.000000
  NaN  NaN  0.000000
  NaN  NaN  0.000000
  NaN  NaN  0.000000
  NaN  NaN  0.000000
  NaN  NaN  0.000000
  NaN  NaN  0.000000
  NaN  NaN  0.000000
  NaN  NaN  0.000000
  NaN  NaN  0.000000
  NaN  NaN  0.000000
  NaN  NaN  0.000000
  NaN  NaN  0.000000
  NaN  NaN  0.000000
  NaN  NaN  0.000000
  NaN  NaN  0.000000
  NaN  NaN  0.000000
  NaN  NaN  0.000000
  NaN  NaN  0.000000
  NaN  NaN  0.000000
  NaN  NaN  0.000000
  NaN  NaN  0.000000
  NaN  NaN  0.000000
  NaN  NaN  0.000000
  NaN  NaN  0.000000
  NaN  NaN  0.000000
  NaN  NaN  0.000000
  NaN  NaN  0.000000
  NaN  NaN  0.000000
  NaN  NaN  0.000000
  NaN  NaN  0.000000
  NaN  NaN  0.000000
  NaN  NaN  0.000000
  NaN  NaN  0.000000
  NaN  NaN  0.000000
  NaN  NaN  0.000000
  NaN  NaN  0.000000
  NaN  NaN  0.000000
  NaN  NaN  0.000000
  NaN  NaN  0.000000
  NaN  NaN  0.000000
  NaN  NaN  0.000000
  NaN  NaN  0.000000
  NaN  NaN  0.000000
  NaN  NaN  0.000000
  NaN  NaN  0.000000
  NaN  NaN  0.000000
  NaN  NaN  0.000000
  NaN  NaN  0.000000
  NaN  NaN  0.000000
  NaN  NaN  0.000000
  NaN  NaN  0.000000
  NaN  NaN  0.000000
  NaN  NaN  0.000000
  NaN  NaN  0.000000
  NaN  NaN  0.000000
  NaN  NaN  0.000000
  NaN  NaN  0.000000
  NaN  NaN  0.000000
  NaN  NaN  0.000000
  NaN  NaN  0.000000
  NaN  NaN  0.000000
  NaN  NaN  0.000000
  NaN  NaN  0.000000
  NaN  NaN  0.000000
  NaN  NaN  0.000000
  NaN  NaN  0.000000
  NaN  NaN  0.000000
  NaN  NaN  0.000000
  NaN  NaN  0.000000
  NaN  NaN  0.000000
  NaN  NaN  0.000000
  NaN  NaN  0.000000
  NaN  NaN  0.000000
  NaN  NaN  0.000000
  NaN  NaN  0.000000
  NaN  NaN  0.000000
  NaN  NaN  0.000000
  NaN  NaN  0.000000
  NaN  NaN  0.000000
  NaN  NaN  0.000000
  NaN  NaN  0.000000
  NaN  NaN  0.000000
  NaN  NaN  0.000000
  NaN  NaN  0.000000
  NaN  NaN  0.000000
  NaN  NaN  0.000000
  NaN  NaN  0.000000
  NaN  NaN  0.000000
  NaN  NaN  0.000000
  NaN  NaN  0.000000
  NaN  NaN  0.000000
  NaN  NaN  0.000000
  NaN  NaN  0.000000
  NaN  NaN  0.000000
  NaN  NaN  0.000000
  NaN  NaN  0.000000
  0.000000  0.000000  0.000000
  0.000000  0.000000  0.000000
  NaN  NaN  0.000000
  NaN  NaN  0.000000
  NaN  NaN  0.000000
  NaN  NaN  0.000000
  NaN  NaN  0.000000
  NaN  NaN  0.000000
  NaN  NaN  0.000000
  NaN  NaN  0.000000
  NaN  NaN  0.000000
  NaN  NaN  0.000000
  NaN  NaN  0.000000
  NaN  NaN  0.000000
  NaN  NaN  0.000000
  NaN  NaN  0.000000
  NaN  NaN  0.000000
  NaN  NaN  0.000000
  NaN  NaN  0.000000
  NaN  NaN  0.000000
  NaN  NaN  0.000000
  0.000000  0.000000  0.000000
  0.000000  0.000000  0.000000

CELL_DATA 265
TENSORS stress double
  NaN  NaN  0.000000
  NaN  NaN  0.000000
  0.000000  0.000000  0.000000


  NaN  NaN  0.000000
  NaN  NaN  0.000000
  0.000000  0.000000  0.000000


  NaN  NaN  0.000000
  NaN  NaN  0.000000
  0.000000  0.000000  0.000000


  NaN  NaN  0.000000
  NaN  NaN  0.000000
  0.000000  0.000000  0.000000


  NaN  NaN  0.000000
  NaN  NaN  0.000000
  0.000000  0.000000  0.000000


  NaN  NaN  0.000000
  NaN  NaN  0.000000
  0.000000  0.000000  0.000000


  NaN  NaN  0.000000
  NaN  NaN  0.000000
  0.000000  0.000000  0.000000


  NaN  NaN  0.000000
  NaN  NaN  0.000000
  0.000000  0.000000  0.000000


  NaN  NaN  0.000000
  NaN  NaN  0.000000
  0.000000  0.000000  0.000000


  NaN  NaN  0.000000
  NaN  NaN  0.000000
  0.000000  0.000000  0.000000


  NaN  NaN  0.000000
  NaN  NaN  0.000000
  0.000000  0.000000  0.000000


  NaN  NaN  0.000000
  NaN  NaN  0.000000
  0.000000  0.000000  0.000000


  NaN  NaN  0.000000
  NaN  NaN  0.000000
  0.000000  0.000000  0.000000


  NaN  NaN  0.000000
  NaN  NaN  0.000000
  0.000000  0.000000  0.000000


  NaN  NaN  0.000000
  NaN  NaN  0.000000
  0.000000  0.000000  0.000000


  NaN  NaN  0.000000
  NaN  NaN  0.000000
  0.000000  0.000000  0.000000


  NaN  NaN  0.000000
  NaN  NaN  0.000000
  0.000000  0.000000  0.000000


  NaN  NaN  0.000000
  NaN  NaN  0.000000
  0.000000  0.000000  0.000000


  NaN  NaN  0.000000
  NaN  NaN  0.000000
  0.000000  0.000000  0.000000


  NaN  NaN  0.000000
  NaN  NaN  0.000000
  0.000000  0.000000  0.000000


  NaN  NaN  0.000000
  NaN  NaN  0.000000
  0.000000  0.000000  0.000000


  NaN  NaN  0.000000
  NaN  NaN  0.000000
  0.000000  0.000000  0.000000


  NaN  NaN  0.000000
  NaN  NaN  0.000000
  0.000000  0.000000  0.000000


  NaN  NaN  0.000000
  NaN  NaN  0.000000
  0.000000  0.000000  0.000000


  NaN  NaN  0.000000
  NaN  NaN  0.000000
  0.000000  0.000000  0.000000


  NaN  NaN  0.000000
  NaN  NaN  0.000000
  0.000000  0.000000  0.000000


  NaN  NaN  0.000000
  NaN  NaN  0.000000
  0.000000  0.000000  0.000000


  NaN  NaN  0.000000
  NaN  NaN  0.000000
  0.000000  0.000000  0.000000


  NaN  NaN  0.000000
  NaN  NaN  0.000000
  0.000000  0.000000  0.000000


  NaN  NaN  0.000000
  NaN  NaN  0.000000
  0.000000  0.000000  0.000000


  NaN  NaN  0.000000
  NaN  NaN  0.000000
  0.000000  0.000000  0.000000


  NaN  NaN  0.000000
  NaN  NaN  0.000000
  0.000000  0.000000  0.000000


  NaN  NaN  0.000000
  NaN  NaN  0.000000
  0.000000  0.000000  0.000000


  NaN  NaN  0.000000
  NaN  NaN  0.000000
  0.000000  0.000000  0.000000


  NaN  NaN  0.000000
  NaN  NaN  0.000000
  0.000000  0.000000  0.000000


  NaN  NaN  0.000000
  NaN  NaN  0.000000
  0.000000  0.000000  0.000000


  NaN  NaN  0.000000
  NaN  NaN  0.000000
  0.000000  0.000000  0.000000


  NaN  NaN  0.000000
  NaN  NaN  0.000000
  0.000000  0.000000  0.000000


  NaN  NaN  0.000000
  NaN  NaN  0.000000
  0.000000  0.000000  0.000000


  NaN  NaN  0.000000
  NaN  NaN  0.000000
  0.000000  0.000000  0.000000


  NaN  NaN  0.000000
  NaN  NaN  0.000000
  0.000000  0.000000  0.000000


  NaN  NaN  0.000000
  NaN  NaN  0.000000
  0.000000  0.000000  0.000000


  NaN  NaN  0.000000
  NaN  NaN  0.000000
  0.000000  0.000000  0.000000


  NaN  NaN  0.000000
  NaN  NaN  0.000000
  0.000000  0.000000  0.000000


  NaN  NaN  0.000000
  NaN  NaN  0.000000
  0.000000  0.000000  0.000000


  NaN  NaN  0.000000
  NaN  NaN  0.000000
  0.000000  0.000000  0.000000


  NaN  NaN  0.000000
  NaN  NaN  0.000000
  0.000000  0.000000  0.000000


  NaN  NaN  0.000000
  NaN  NaN  0.000000
  0.000000  0.000000  0.000000


  NaN  NaN  0.000000
  NaN  NaN  0.000000
  0.000000  0.000000  0.000000


  NaN  NaN  0.000000
  NaN  NaN  0.000000
  0.000000  0.000000  0.000000


  NaN  NaN  0.000000
  NaN  NaN  0.000000
  0.000000  0.000000  0.000000


  NaN  NaN  0.000000
  NaN  NaN  0.000000
  0.000000  0.000000  0.000000


  NaN  NaN  0.000000
  NaN  NaN  0.000000
  0.000000  0.000000  0.000000


  NaN  NaN  0.000000
  NaN  NaN  0.000000
  0.000000  0.000000  0.000000


  NaN  NaN  0.000000
  NaN  NaN  0.000000
  0.000000  0.000000  0.000000


  NaN  NaN  0.000000
  NaN  NaN  0.000000
  0.000000  0.000000  0.000000


  NaN  NaN  0.000000
  NaN  NaN  0.000000
  0.000000  0.000000  0.000000


  NaN  NaN  0.000000
  NaN  NaN  0.000000
  0.000000  0.000000  0.000000


  NaN  NaN  0.000000
  NaN  NaN  0.000000
  0.000000  0.000000  0.000000


  NaN  NaN  0.000000
  NaN  NaN  0.000000
  0.000000  0.000000  0.000000


  NaN  NaN  0.000000
  NaN  NaN  0.000000
  0.000000  0.000000  0.000000


  NaN  NaN  0.000000
  NaN  NaN  0.000000
  0.000000  0.000000  0.000000


  NaN  NaN  0.000000
  NaN  NaN  0.000000
  0.000000  0.000000  0.000000


  NaN  NaN  0.000000
  NaN  NaN  0.000000
  0.000000  0.000000  0.000000


  NaN  NaN  0.000000
  NaN  NaN  0.000000
  0.000000  0.000000  0.000000


  NaN  NaN  0.000000
  NaN  NaN  0.000000
  0.000000  0.000000  0.000000


  NaN  NaN  0.000000
  NaN  NaN  0.000000
  0.000000  0.000000  0.000000


  NaN  NaN  0.000000
  NaN  NaN  0.000000
  0.000000  0.000000  0.000000


  NaN  NaN  0.000000
  NaN  NaN  0.000000
  0.000000  0.000000  0.000000


  NaN  NaN  0.000000
  NaN  NaN  0.000000
  0.000000  0.000000  0.000000


  NaN  NaN  0.000000
  NaN  NaN  0.000000
  0.000000  0.000000  0.000000


  NaN  NaN  0.000000
  NaN  NaN  0.000000
  0.000000  0.000000  0.000000


  NaN  NaN  0.000000
  NaN  NaN  0.000000
  0.000000  0.000000  0.000000


  NaN  NaN  0.000000
  NaN  NaN  0.000000
  0.000000  0.000000  0.000000


  NaN  NaN  0.000000
  NaN  NaN  0.000000
  0.000000  0.000000  0.000000


  NaN  NaN  0.000000
  NaN  NaN  0.000000
  0.000000  0.000000  0.000000


  NaN  NaN  0.000000
  NaN  NaN  0.000000
  0.000000  0.000000  0.000000


  NaN  NaN  0.000000
  NaN  NaN  0.000000
  0.000000  0.000000  0.000000


  NaN  NaN  0.000000
  NaN  NaN  0.000000
  0.000000  0.000000  0.000000


  NaN  NaN  0.000000
  NaN  NaN  0.000000
  0.000000  0.000000  0.000000


  NaN  NaN  0.000000
  NaN  NaN  0.000000
  0.000000  0.000000  0.000000


  NaN  NaN  0.000000
  NaN  NaN  0.000000
  0.000000  0.000000  0.000000


  NaN  NaN  0.000000
  NaN  NaN  0.000000
  0.000000  0.000000  0.000000


  NaN  NaN  0.000000
  NaN  NaN  0.000000
  0.000000  0.000000  0.000000


  NaN  NaN  0.000000
  NaN  NaN  0.000000
  0.000000  0.000000  0.000000


  NaN  NaN  0.000000
  NaN  NaN  0.000000
  0.000000  0.000000  0.000000


  NaN  NaN  0.000000
  NaN  NaN  0.000000
  0.000000  0.000000  0.000000


  NaN  NaN  0.000000
  NaN  NaN  0.000000
  0.000000  0.000000  0.000000


  NaN  NaN  0.000000
  NaN  NaN  0.000000
  0.000000  0.000000  0.000000


  NaN  NaN  0.000000
  NaN  NaN  0.000000
  0.000000  0.000000  0.000000


  NaN  NaN  0.000000
  NaN  NaN  0.000000
  0.000000  0.000000  0.000000


  NaN  NaN  0.000000
  NaN  NaN  0.000000
  0.000000  0.000000  0.000000


  NaN  NaN  0.000000
  NaN  NaN  0.000000
  0.000000  0.000000  0.000000


  NaN  NaN  0.000000
  NaN  NaN  0.000000
  0.000000  0.000000  0.000000


  NaN  NaN  0.000000
  NaN  NaN  0.000000
  0.000000  0.000000  0.000000


  NaN  NaN  0.000000
  NaN  NaN  0.000000
  0.000000  0.000000  0.000000


  NaN  NaN  0.000000
  NaN  NaN  0.000000
  0.000000  0.000000  0.000000


  NaN  NaN  0.000000
  NaN  NaN  0.000000
  0.000000  0.000000  0.000000


  NaN  NaN  0.000000
  NaN  NaN  0.000000
  0.000000  0.000000  0.000000


  NaN  NaN  0.000000
  NaN  NaN  0.000000
  0.000000  0.000000  0.000000


  NaN  NaN  0.000000
  NaN  NaN  0.000000
  0.000000  0.000000  0.000000


  NaN  NaN  0.000000
  NaN  NaN  0.000000
  0.000000  0.000000  0.000000


  NaN  NaN  0.000000
  NaN  NaN  0.000000
  0.000000  0.000000  0.000000


  NaN  NaN  0.000000
  NaN  NaN  0.000000
  0.000000  0.000000  0.000000


  NaN  NaN  0.000000
  NaN  NaN  0.000000
  0.000000  0.000000  0.000000


  NaN  NaN  0.000000
  NaN  NaN  0.000000
  0.000000  0.000000  0.000000


  NaN  NaN  0.000000
  NaN  NaN  0.000000
  0.000000  0.000000  0.000000


  NaN  NaN  0.000000
  NaN  NaN  0.000000
  0.000000  0.000000  0.000000


  NaN  NaN  0.000000
  NaN  NaN  0.000000
  0.000000  0.000000  0.000000


  NaN  NaN  0.000000
  NaN  NaN  0.000000
  0.000000  0.000000  0.000000


  NaN  NaN  0.000000
  NaN  NaN  0.000000
  0.000000  0.000000  0.000000


  NaN  NaN  0.000000
  NaN  NaN  0.000000
  0.000000  0.000000  0.000000


  NaN  NaN  0.000000
  NaN  NaN  0.000000
  0.000000  0.000000  0.000000


  NaN  NaN  0.000000
  NaN  NaN  0.000000
  0.000000  0.000000  0.000000


  NaN  NaN  0.000000
  NaN  NaN  0.000000
  0.000000  0.000000  0.000000


  NaN  NaN  0.000000
  NaN  NaN  0.000000
  0.000000  0.000000  0.000000


  NaN  NaN  0.000000
  NaN  NaN  0.000000
  0.000000  0.000000  0.000000


  NaN  NaN  0.000000
  NaN  NaN  0.000000
  0.000000  0.000000  0.000000


  NaN  NaN  0.000000
  NaN  NaN  0.000000
  0.000000  0.000000  0.000000


  NaN  NaN  0.000000
  NaN  NaN  0.000000
  0.000000  0.000000  0.000000


  NaN  NaN  0.000000
  NaN  NaN  0.000000
  0.000000  0.000000  0.000000


  NaN  NaN  0.000000
  NaN  NaN  0.000000
  0.000000  0.000000  0.000000


  NaN  NaN  0.000000
  NaN  NaN  0.000000
  0.000000  0.000000  0.000000


  NaN  NaN  0.000000
  NaN  NaN  0.000000
  0.000000  0.000000  0.000000


  NaN  NaN  0.000000
  NaN  NaN  0.000000
  0.000000  0.000000  0.000000


  NaN  NaN  0.000000
  NaN  NaN  0.000000
  0.000000  0.000000  0.000000


  NaN  NaN  0.000000
  NaN  NaN  0.000000
  0.000000  0.000000  0.000000


  NaN  NaN  0.000000
  NaN  NaN  0.000000
  0.000000  0.000000  0.000000


  NaN  NaN  0.000000
  NaN  NaN  0.000000
  0.000000  0.000000  0.000000


  NaN  NaN  0.000000
  NaN  NaN  0.000000
  0.000000  0.000000  0.000000


  NaN  NaN  0.000000
  NaN  NaN  0.000000
  0.000000  0.000000  0.000000


  NaN  NaN  0.000000
  NaN  NaN  0.000000
  0.000000  0.000000  0.000000


  NaN  NaN  0.000000
  NaN  NaN  0.000000
  0.000000  0.000000  0.000000


  NaN  NaN  0.000000
  NaN  NaN  0.000000
  0.000000  0.000000  0.000000


  NaN  NaN  0.000000
  NaN  NaN  0.000000
  0.000000  0.000000  0.000000


  NaN  NaN  0.000000
  NaN  NaN  0.000000
  0.000000  0.000000  0.000000


  NaN  NaN  0.000000
  NaN  NaN  0.000000
  0.000000  0.000000  0.000000


  NaN  NaN  0.000000
  NaN  NaN  0.000000
  0.000000  0.000000  0.000000


  NaN  NaN  0.000000
  NaN  NaN  0.000000
  0.000000  0.000000  0.000000


  NaN  NaN  0.000000
  NaN  NaN  0.000000
  0.000000  0.000000  0.000000


  NaN  NaN  0.000000
  NaN  NaN  0.000000
  0.000000  0.000000  0.000000


  NaN  NaN  0.000000
  NaN  NaN  0.000000
  0.000000  0.000000  0.000000


  NaN  NaN  0.000000
  NaN  NaN  0.000000
  0.000000  0.000000  0.000000


  NaN  NaN  0.000000
  NaN  NaN  0.000000
  0.000000  0.000000  0.000000


  NaN  NaN  0.000000
  NaN  NaN  0.000000
  0.000000  0.000000  0.000000


  NaN  NaN  0.000000
  NaN  NaN  0.000000
  0.000000  0.000000  0.000000


  NaN  NaN  0.000000
  NaN  NaN  0.000000
  0.000000  0.000000  0.000000


  NaN  NaN  0.000000
  NaN  NaN  0.000000
  0.000000  0.000000  0.000000


  NaN  NaN  0.000000
  NaN  NaN  0.000000
  0.000000  0.000000  0.000000


  NaN  NaN  0.000000
  NaN  NaN  0.000000
  0.000000  0.000000  0.000000


  NaN  NaN  0.000000
  NaN  NaN  0.000000
  0.000000  0.000000  0.000000


  NaN  NaN  0.000000
  NaN  NaN  0.000000
  0.000000  0.000000  0.000000


  NaN  NaN  0.000000
  NaN  NaN  0.000000
  0.000000  0.000000  0.000000


  NaN  NaN  0.000000
  NaN  NaN  0.000000
  0.000000  0.000000  0.000000


  NaN  NaN  0.000000
  NaN  NaN  0.000000
  0.000000  0.000000  0.000000


  NaN  NaN  0.000000
  NaN  NaN  0.000000
  0.000000  0.000000  0.000000


  NaN  NaN  0.000000
  NaN  NaN  0.000000
  0.000000  0.000000  0.000000


  NaN  NaN  0.000000
  NaN  NaN  0.000000
  0.000000  0.000000  0.000000


  NaN  NaN  0.000000
  NaN  NaN  0.000000
  0.000000  0.000000  0.000000


  NaN  NaN  0.000000
  NaN  NaN  0.000000
  0.000000  0.000000  0.000000


  NaN  NaN  0.000000
  NaN  NaN  0.000000
  0.000000  0.000000  0.000000


  NaN  NaN  0.000000
  NaN  NaN  0.000000
  0.000000  0.000000  0.000000


  NaN  NaN  0.000000
  NaN  NaN  0.000000
  0.000000  0.000000  0.000000


  NaN  NaN  0.000000
  NaN  NaN  0.000000
  0.000000  0.000000  0.000000


  NaN  NaN  0.000000
  NaN  NaN  0.000000
  0.000000  0.000000  0.000000


  NaN  NaN  0.000000
  NaN  NaN  0.000000
  0.000000  0.000000  0.000000


  NaN  NaN  0.000000
  NaN  NaN  0.000000
  0.000000  0.000000  0.000000


  NaN  NaN  0.000000
  NaN  NaN  0.000000
  0.000000  0.000000  0.000000


  NaN  NaN  0.000000
  NaN  NaN  0.000000
  0.000000  0.000000  0.000000


  NaN  NaN  0.000000
  NaN  NaN  0.000000
  0.000000  0.000000  0.000000


  NaN  NaN  0.000000
  NaN  NaN  0.000000
  0.000000  0.000000  0.000000


  NaN  NaN  0.000000
  NaN  NaN  0.000000
  0.000000  0.000000  0.000000


  NaN  NaN  0.000000
  NaN  NaN  0.000000
  0.000000  0.000000  0.000000


  NaN  NaN  0.000000
  NaN  NaN  0.000000
  0.000000  0.000000  0.000000


  NaN  NaN  0.000000
  NaN  NaN  0.000000
  0.000000  0.000000  0.000000


  NaN  NaN  0.000000
  NaN  NaN  0.000000
  0.000000  0.000000  0.000000


  NaN  NaN  0.000000
  NaN  NaN  0.000000
  0.000000  0.000000  0.000000


  NaN  NaN  0.000000
  NaN  NaN  0.000000
  0.000000  0.000000  0.000000


  NaN  NaN  0.000000
  NaN  NaN  0.000000
  0.000000  0.000000  0.000000


  NaN  NaN  0.000000
  NaN  NaN  0.000000
  0.000000  0.000000  0.000000


  NaN  NaN  0.000000
  NaN  NaN  0.000000
  0.000000  0.000000  0.000000


  NaN  NaN  0.000000
  NaN  NaN  0.000000
  0.000000  0.000000  0.000000


  NaN  NaN  0.000000
  NaN  NaN  0.000000
  0.000000  0.000000  0.000000


  NaN  NaN  0.000000
  NaN  NaN  0.000000
  0.000000  0.000000  0.000000


  NaN  NaN  0.000000
  NaN  NaN  0.000000
  0.000000  0.000000  0.000000


  NaN  NaN  0.000000
  NaN  NaN  0.000000
  0.000000  0.000000  0.000000


  NaN  NaN  0.000000
  NaN  NaN  0.000000
  0.000000  0.000000  0.000000


  NaN  NaN  0.000000
  NaN  NaN  0.000000
  0.000000  0.000000  0.000000


  NaN  NaN  0.000000
  NaN  NaN  0.000000
  0.000000  0.000000  0.000000


  NaN  NaN  0.000000
  NaN  NaN  0.000000
  0.000000  0.000000  0.000000


  NaN  NaN  0.000000
  NaN  NaN  0.000000
  0.000000  0.000000  0.000000


  NaN  NaN  0.000000
  NaN  NaN  0.000000
  0.000000  0.000000  0.000000


  NaN  NaN  0.000000
  NaN  NaN  0.000000
  0.000000  0.000000  0.000000


  NaN  NaN  0.000000
  NaN  NaN  0.000000
  0.000000  0.000000  0.000000


  NaN  NaN  0.000000
  NaN  NaN  0.000000
  0.000000  0.000000  0.000000


  NaN  NaN  0.000000
  NaN  NaN  0.000000
  0.000000  0.000000  0.000000


  NaN  NaN  0.000000
  NaN  NaN  0.000000
  0.000000  0.000000  0.000000


  NaN  NaN  0.000000
  NaN  NaN  0.000000
  0.000000  0.000000  0.000000


  NaN  NaN  0.000000
  NaN  NaN  0.000000
  0.000000  0.000000  0.000000


  NaN  NaN  0.000000
  NaN  NaN  0.000000
  0.000000  0.000000  0.000000


  NaN  NaN  0.000000
  NaN  NaN  0.000000
  0.000000  0.000000  0.000000


  NaN  NaN  0.000000
  NaN  NaN  0.000000
  0.000000  0.000000  0.000000


  NaN  NaN  0.000000
  NaN  NaN  0.000000
  0.000000  0.000000  0.000000


  NaN  NaN  0.000000
  NaN  NaN  0.000000
  0.000000  0.000000  0.000000


  NaN  NaN  0.000000
  NaN  NaN  0.000000
  0.000000  0.000000  0.000000


  NaN  NaN  0.000000
  NaN  NaN  0.000000
  0.000000  0.000000  0.000000


  NaN  NaN  0.000000
  NaN  NaN  0.000000
  0.000000  0.000000  0.000000


  NaN  NaN  0.000000
  NaN  NaN  0.000000
  0.000000  0.000000  0.000000


  NaN  NaN  0.000000
  NaN  NaN  0.000000
  0.000000  0.000000  0.000000


  NaN  NaN  0.000000
  NaN  NaN  0.000000
  0.000000  0.000000  0.000000


  NaN  NaN  0.000000
  NaN  NaN  0.000000
  0.000000  0.000000  0.000000


  NaN  NaN  0.000000
  NaN  NaN  0.000000
  0.000000  0.000000  0.000000


  NaN  NaN  0.000000
  NaN  NaN  0.000000
  0.000000  0.000000  0.000000


  NaN  NaN  0.000000
  NaN  NaN  0.000000
  0.000000  0.000000  0.000000


  NaN  NaN  0.000000
  NaN  NaN  0.000000
  0.000000  0.000000  0.000000


  NaN  NaN  0.000000
  NaN  NaN  0.000000
  0.000000  0.000000  0.000000


  NaN  NaN  0.000000
  NaN  NaN  0.000000
  0.000000  0.000000  0.000000


  NaN  NaN  0.000000
  NaN  NaN  0.000000
  0.000000  0.000000  0.000000


  NaN  NaN  0.000000
  NaN  NaN  0.000000
  0.000000  0.000000  0.000000


  NaN  NaN  0.000000
  NaN  NaN  0.000000
  0.000000  0.000000  0.000000


  NaN  NaN  0.000000
  NaN  NaN  0.000000
  0.000000  0.000000  0.000000


  NaN  NaN  0.000000
  NaN  NaN  0.000000
  0.000000  0.000000  0.000000


  NaN  NaN  0.000000
  NaN  NaN  0.000000
  0.000000  0.000000  0.000000


  NaN  NaN  0.000000
  NaN  NaN  0.000000
  0.000000  0.000000  0.000000


  NaN  NaN  0.000000
  NaN  NaN  0.000000
  0.000000  0.000000  0.000000


  NaN  NaN  0.000000
  NaN  NaN  0.000000
  0.000000  0.000000  0.000000


  NaN  NaN  0.000000
  NaN  NaN  0.000000
  0.000000  0.000000  0.000000


  NaN  NaN  0.000000
  NaN  NaN  0.000000
  0.000000  0.000000  0.000000


  NaN  NaN  0.000000
  NaN  NaN  0.000000
  0.000000  0.000000  0.000000


  NaN  NaN  0.000000
  NaN  NaN  0.000000
  0.000000  0.000000  0.000000


  NaN  NaN  0.000000
  NaN  NaN  0.000000
  0.000000  0.000000  0.000000


  NaN  NaN  0.000000
  NaN  NaN  0.000000
  0.000000  0.000000  0.000000


  NaN  NaN  0.000000
  NaN  NaN  0.000000
  0.000000  0.000000  0.000000


  NaN  NaN  0.000000
  NaN  NaN  0.000000
  0.000000  0.000000  0.000000


  NaN  NaN  0.000000
  NaN  NaN  0.000000
  0.000000  0.000000  0.000000


  NaN  NaN  0.000000
  NaN  NaN  0.000000
  0.000000  0.000000  0.000000


  NaN  NaN  0.000000
  NaN  NaN  0.000000
  0.000000  0.000000  0.000000


  NaN  NaN  0.000000
  NaN  NaN  0.000000
  0.000000  0.000000  0.000000


  NaN  NaN  0.000000
  NaN  NaN  0.000000
  0.000000  0.000000  0.000000


  NaN  NaN  0.000000
  NaN  NaN  0.000000
  0.000000  0.000000  0.000000


  NaN  NaN  0.000000
  NaN  NaN  0.000000
  0.000000  0.000000  0.000000


  NaN  NaN  0.000000
  NaN  NaN  0.000000
  0.000000  0.000000  0.000000


  NaN  NaN  0.000000
  NaN  NaN  0.000000
  0.000000  0.000000  0.000000


  NaN  NaN  0.000000
  NaN  NaN  0.000000
  0.000000  0.000000  0.000000


  NaN  NaN  0.000000
  NaN  NaN  0.000000
  0.000000  0.000000  0.000000


  NaN  NaN  0.000000
  NaN  NaN  0.000000
  0.000000  0.000000  0.000000


  NaN  NaN  0.000000
  NaN  NaN  0.000000
  0.000000  0.000000  0.000000


  NaN  NaN  0.000000
  NaN  NaN  0.000000
  0.000000  0.000000  0.000000


  NaN  NaN  0.000000
  NaN  NaN  0.000000
  0.000000  0.000000  0.000000


  NaN  NaN  0.000000
  NaN  NaN  0.000000
  0.000000  0.000000  0.000000


  NaN  NaN  0.000000
  NaN  NaN  0.000000
  0.000000  0.000000  0.000000


  NaN  NaN  0.000000
  NaN  NaN  0.000000
  0.000000  0.000000  0.000000


  NaN  NaN  0.000000
  NaN  NaN  0.000000
  0.000000  0.000000  0.000000


  NaN  NaN  0.000000
  NaN  NaN  0.000000
  0.000000  0.000000  0.000000


  NaN  NaN  0.000000
  NaN  NaN  0.000000
  0.000000  0.000000  0.000000


  NaN  NaN  0.000000
  NaN  NaN  0.000000
  0.000000  0.000000  0.000000


  NaN  NaN  0.000000
  NaN  NaN  0.000000
  0.000000  0.000000  0.000000


  NaN  NaN  0.000000
  NaN  NaN  0.000000
  0.000000  0.000000  0.000000


  NaN  NaN  0.000000
  NaN  NaN  0.000000
  0.000000  0.000000  0.000000


  NaN  NaN  0.000000
  NaN  NaN  0.000000
  0.000000  0.000000  0.000000


  NaN  NaN  0.000000
  NaN  NaN  0.000000
  0.000000  0.000000  0.000000


  NaN  NaN  0.000000
  NaN  NaN  0.000000
  0.000000  0.000000  0.000000


  NaN  NaN  0.000000
  NaN  NaN  0.000000
  0.000000  0.000000  0.000000


  NaN  NaN  0.000000
  NaN  NaN  0.000000
  0.000000  0.000000  0.000000


  NaN  NaN  0.000000
  NaN  NaN  0.000000
  0.000000  0.000000  0.000000

